<svg xmlns="http://www.w3.org/2000/svg" width="252" height="48" viewBox="0 0 252 48" fill="none"><mask id="mask0_880_46" style="mask-type:alpha" maskUnits="userSpaceOnUse" x="0" y="0" width="50" height="48"><path d="M25.019 0.396973C26.8763 0.396973 28.5083 1.33579 29.4866 2.75869L49.3014 38.9514L49.3003 38.9522C49.7376 39.7341 49.9887 40.6341 49.9887 41.594C49.9887 44.5919 47.5585 47.0221 44.5605 47.0221C42.605 47.0221 40.8962 45.9848 39.9407 44.4336C39.8429 44.2749 39.7538 44.1111 39.6723 43.9423L20.4227 8.70355C19.8988 7.86872 19.5908 6.88389 19.5908 5.8255C19.5908 2.82717 22.021 0.396973 25.019 0.396973Z" fill="#00D5FF"></path><path d="M25.019 0.396973C26.8763 0.396973 28.5083 1.33579 29.4866 2.75869L49.3014 38.9514L49.3003 38.9522C49.7376 39.7341 49.9887 40.6341 49.9887 41.594C49.9887 44.5919 47.5585 47.0221 44.5605 47.0221C42.605 47.0221 40.8962 45.9848 39.9407 44.4336C39.8429 44.2749 39.7538 44.1111 39.6723 43.9423L20.4227 8.70355C19.8988 7.86872 19.5908 6.88389 19.5908 5.8255C19.5908 2.82717 22.021 0.396973 25.019 0.396973Z" fill="url(#paint0_linear_880_46)"></path><path d="M25.019 0.396973C26.8763 0.396973 28.5083 1.33579 29.4866 2.75869L49.3014 38.9514L49.3003 38.9522C49.7376 39.7341 49.9887 40.6341 49.9887 41.594C49.9887 44.5919 47.5585 47.0221 44.5605 47.0221C42.605 47.0221 40.8962 45.9848 39.9407 44.4336C39.8429 44.2749 39.7538 44.1111 39.6723 43.9423L20.4227 8.70355C19.8988 7.86872 19.5908 6.88389 19.5908 5.8255C19.5908 2.82717 22.021 0.396973 25.019 0.396973Z" fill="#16BFEF"></path><path d="M24.9791 0.396973C23.1218 0.396973 21.4898 1.33579 20.5115 2.75869L0.69712 38.9514L0.698206 38.9522C0.260866 39.7341 0.00976562 40.6341 0.00976562 41.594C0.00976562 44.5919 2.43996 47.0221 5.43794 47.0221C7.39347 47.0221 9.10225 45.9848 10.0577 44.4336C10.1556 44.2749 10.2451 44.1111 10.3262 43.9423L29.5757 8.70355C30.0997 7.86872 30.4077 6.88389 30.4077 5.8255C30.4069 2.82717 27.9767 0.396973 24.9791 0.396973Z" fill="#16BFEF"></path><path d="M24.9791 0.396973C23.1218 0.396973 21.4898 1.33579 20.5115 2.75869L0.69712 38.9514L0.698206 38.9522C0.260866 39.7341 0.00976562 40.6341 0.00976562 41.594C0.00976562 44.5919 2.43996 47.0221 5.43794 47.0221C7.39347 47.0221 9.10225 45.9848 10.0577 44.4336C10.1556 44.2749 10.2451 44.1111 10.3262 43.9423L29.5757 8.70355C30.0997 7.86872 30.4077 6.88389 30.4077 5.8255C30.4069 2.82717 27.9767 0.396973 24.9791 0.396973Z" fill="url(#paint1_linear_880_46)"></path><path d="M23.5354 25.397H11.4059C8.41622 25.397 5.99219 27.8206 5.99219 30.8107C5.99219 33.8007 8.41586 36.2243 11.4059 36.2243H23.5358C26.5258 36.2243 28.9494 33.8007 28.9494 30.8107C28.9491 27.821 26.5254 25.397 23.5354 25.397Z" fill="#16BFEF"></path></mask><g mask="url(#mask0_880_46)"><path d="M48.2866 19.3628C26.0803 7.22947 24.8113 -6.93999 25.0887 -14.0447L15.058 3.55474L-7.33214 46.502L3.20642 55.6468L20.7114 66.1715L48.2866 19.3628Z" fill="#16BFEF"></path><path d="M25.0098 17.397L32.7554 41.7042L58.481 37.2704L59.7667 21.273L43.509 2.397C39.2934 -0.0874469 20.5093 -0.103082 20.5093 -0.103082C20.5093 -0.103082 19.5103 9.89693 25.0098 17.397Z" fill="white"></path><path d="M25.8683 18.78L43.0102 55.397L58.9254 36.8589L59.8188 20.8347L50.1965 3.47096C45.9213 1.09054 30.3797 -12.7762 24.5106 -5.60303C18.1978 2.11254 22.0098 12.397 25.8683 18.78Z" fill="url(#paint2_linear_880_46)"></path><path d="M21.081 24.9303C8.01023 25.897 6.00925 30.397 0.509766 36.397L4.51206 35.3964L21.3591 29.3889L21.081 24.9303Z" fill="white"></path><path d="M20.5097 25.3972C12.5097 25.897 9.50992 27.897 4.00977 31.897L-3.49039 42.897L2.64062 51.897L31.0097 37.397L28.0097 24.897L20.5097 25.3972Z" fill="url(#paint3_linear_880_46)"></path></g><path d="M75.9103 30.4488H67.0042L65.5305 34.7096H60.8212L68.8623 12.3163H74.0842L82.1253 34.7096H77.3839L75.9103 30.4488ZM74.6929 26.8607L71.4572 17.5062L68.2216 26.8607H74.6929ZM89.616 11.0028V34.7096H85.1309V11.0028H89.616ZM110.546 25.4511C110.546 26.0919 110.503 26.6685 110.418 27.1811H97.4431C97.5499 28.4625 97.9984 29.4663 98.7886 30.1925C99.5788 30.9186 100.551 31.2817 101.704 31.2817C103.37 31.2817 104.555 30.5663 105.26 29.1353H110.097C109.585 30.8439 108.602 32.2535 107.15 33.3641C105.698 34.4533 103.914 34.9979 101.8 34.9979C100.091 34.9979 98.5537 34.6242 97.1868 33.8767C95.8413 33.1078 94.7841 32.0292 94.0152 30.641C93.2677 29.2528 92.8939 27.651 92.8939 25.8356C92.8939 23.9988 93.2677 22.3863 94.0152 20.9981C94.7627 19.6099 95.8092 18.542 97.1547 17.7945C98.5003 17.047 100.049 16.6732 101.8 16.6732C103.487 16.6732 104.993 17.0363 106.317 17.7625C107.663 18.4886 108.698 19.5245 109.425 20.87C110.172 22.1941 110.546 23.7212 110.546 25.4511ZM105.901 24.1697C105.879 23.0164 105.463 22.098 104.651 21.4146C103.84 20.7098 102.846 20.3574 101.672 20.3574C100.561 20.3574 99.6215 20.6991 98.8527 21.3825C98.1051 22.0446 97.646 22.9737 97.4751 24.1697H105.901ZM123.623 34.7096L119.97 29.1994L116.735 34.7096H111.929L117.728 25.8035L111.865 16.9616H116.927L120.547 22.4397L123.815 16.9616H128.62L122.79 25.8035L128.684 34.7096H123.623ZM167.074 12.3804L160.603 34.7096H157.335L152.145 16.7373L146.763 34.7096L143.527 34.7416L137.28 12.3804H140.388L145.257 31.3138L150.639 12.3804H153.907L159.033 31.2497L163.934 12.3804H167.074ZM171.77 14.3026C171.215 14.3026 170.745 14.1103 170.36 13.7259C169.976 13.3415 169.784 12.8716 169.784 12.3163C169.784 11.761 169.976 11.2912 170.36 10.9067C170.745 10.5223 171.215 10.3301 171.77 10.3301C172.304 10.3301 172.752 10.5223 173.115 10.9067C173.5 11.2912 173.692 11.761 173.692 12.3163C173.692 12.8716 173.5 13.3415 173.115 13.7259C172.752 14.1103 172.304 14.3026 171.77 14.3026ZM173.18 17.1538V34.7096H170.264V17.1538H173.18ZM181.063 11.0028V34.7096H178.148V11.0028H181.063ZM184.943 25.8996C184.943 24.0843 185.306 22.5038 186.032 21.1583C186.758 19.7914 187.762 18.7342 189.043 17.9867C190.346 17.2392 191.831 16.8654 193.497 16.8654C195.654 16.8654 197.426 17.3887 198.815 18.4352C200.224 19.4817 201.153 20.934 201.602 22.7921H198.462C198.163 21.7243 197.576 20.8806 196.7 20.2613C195.846 19.6419 194.778 19.3322 193.497 19.3322C191.831 19.3322 190.485 19.9089 189.46 21.0622C188.435 22.1941 187.922 23.8066 187.922 25.8996C187.922 28.014 188.435 29.6479 189.46 30.8012C190.485 31.9545 191.831 32.5311 193.497 32.5311C194.778 32.5311 195.846 32.2321 196.7 31.6341C197.554 31.0361 198.142 30.1818 198.462 29.0712H201.602C201.132 30.8653 200.192 32.3069 198.782 33.3961C197.373 34.464 195.611 34.9979 193.497 34.9979C191.831 34.9979 190.346 34.6242 189.043 33.8767C187.762 33.1291 186.758 32.072 186.032 30.7051C185.306 29.3382 184.943 27.7364 184.943 25.8996ZM213.148 34.9979C211.504 34.9979 210.009 34.6242 208.663 33.8767C207.339 33.1291 206.292 32.072 205.524 30.7051C204.776 29.3168 204.402 27.715 204.402 25.8996C204.402 24.1056 204.787 22.5252 205.556 21.1583C206.346 19.7701 207.414 18.7129 208.759 17.9867C210.105 17.2392 211.61 16.8654 213.276 16.8654C214.942 16.8654 216.448 17.2392 217.793 17.9867C219.139 18.7129 220.196 19.7594 220.965 21.1263C221.755 22.4931 222.15 24.0843 222.15 25.8996C222.15 27.715 221.745 29.3168 220.933 30.7051C220.143 32.072 219.064 33.1291 217.697 33.8767C216.33 34.6242 214.814 34.9979 213.148 34.9979ZM213.148 32.435C214.195 32.435 215.177 32.1894 216.096 31.6982C217.014 31.207 217.751 30.4701 218.306 29.4877C218.883 28.5053 219.171 27.3092 219.171 25.8996C219.171 24.4901 218.893 23.294 218.338 22.3116C217.783 21.3292 217.057 20.603 216.16 20.1331C215.263 19.6419 214.291 19.3963 213.244 19.3963C212.176 19.3963 211.194 19.6419 210.297 20.1331C209.421 20.603 208.717 21.3292 208.183 22.3116C207.649 23.294 207.382 24.4901 207.382 25.8996C207.382 27.3306 207.638 28.5373 208.151 29.5197C208.684 30.5022 209.389 31.239 210.265 31.7302C211.141 32.2001 212.102 32.435 213.148 32.435ZM235.146 34.7096L230.981 28.1742L226.977 34.7096H223.933L229.604 25.9958L223.933 17.1538H227.233L231.398 23.6571L235.37 17.1538H238.413L232.775 25.8356L238.446 34.7096H235.146Z" fill="white"></path><defs><linearGradient id="paint0_linear_880_46" x1="27.0051" y1="14.744" x2="16.5967" y2="7.80398" gradientUnits="userSpaceOnUse"><stop stop-color="#017DC0"></stop><stop offset="1" stop-color="#003B5A"></stop></linearGradient><linearGradient id="paint1_linear_880_46" x1="20.5193" y1="33.8792" x2="12.486" y2="45.8863" gradientUnits="userSpaceOnUse"><stop stop-color="#017DC0"></stop><stop offset="0.946963" stop-color="#003B5A"></stop></linearGradient><linearGradient id="paint2_linear_880_46" x1="31.4791" y1="13.1686" x2="19.4478" y2="8.25128" gradientUnits="userSpaceOnUse"><stop stop-color="#017DC0"></stop><stop offset="1" stop-color="#003B5A"></stop></linearGradient><linearGradient id="paint3_linear_880_46" x1="11.0098" y1="21.897" x2="16.0385" y2="32.6497" gradientUnits="userSpaceOnUse"><stop offset="0.0530371" stop-color="#003B5A"></stop><stop offset="1" stop-color="#017DBE"></stop></linearGradient></defs></svg>